<svg xmlns="http://www.w3.org/2000/svg" xmlns:xlink="http://www.w3.org/1999/xlink" viewBox="0,0,256,256" width="96px" height="96px" fill-rule="nonzero"><g fill="none" fill-rule="nonzero" stroke="none" stroke-width="1" stroke-linecap="butt" stroke-linejoin="miter" stroke-miterlimit="10" stroke-dasharray="" stroke-dashoffset="0" font-family="none" font-weight="none" font-size="none" text-anchor="none" style="mix-blend-mode: normal"><g transform="scale(5.33333,5.33333)"><path d="M40,20c0.391,-1.735 -0.092,-3.78 -2.5,-6c-3.914,3.543 -2.795,7.227 -1.5,9c0,0 -0.166,1 -4,1c-3.834,0 -30,0 -30,0c0,0 -1.833,16 16,16c15.593,0 19.973,-12.003 20.828,-15.076c0.354,0.048 0.751,0.079 1.172,0.076c2.147,-0.017 4.93,-1.171 6,-5.484c-2.838,-0.983 -4.661,-0.538 -6,0.484z" fill="#33c1ff"></path><path d="M2.165,28c0.735,4.739 3.818,12 15.835,12c12.185,0 17.523,-7.33 19.682,-12z" fill="#0288d1"></path><path d="M19.812,39.938c-0.92,-0.322 -5.072,-1.09 -5.812,-6.938c-4.209,1.863 -7.938,1.375 -9.579,1.008c2.162,3.229 6.17,5.992 13.579,5.992c0.623,0 1.224,-0.024 1.812,-0.062z" fill="#81d4fa"></path><path d="M18,30c-1.10457,0 -2,0.89543 -2,2c0,1.10457 0.89543,2 2,2c1.10457,0 2,-0.89543 2,-2c0,-1.10457 -0.89543,-2 -2,-2z" fill="#ffffff"></path><path d="M14.914,33.597c0.224,0.505 0.02,1.162 -0.51,1.318c-3.301,0.973 -6.146,1.102 -8.297,1.102c-0.644,-0.619 -1.194,-1.279 -1.656,-1.963c2.585,0 6.71,-0.12 9.144,-0.966c0.522,-0.182 1.095,0.002 1.319,0.509zM2,27c0,0 1.875,0.125 3,-1c1.875,1.688 5.94,1.088 7,0c1.063,1.688 6.938,1.375 8,0c1.25,1.438 6.625,1.75 8,0c0.479,1.461 6.819,1.874 8,0c1.061,1.088 5.063,1.938 7.311,0c0.564,1.188 2.689,1 2.689,1v1h-44M17,32c0,0.552 0.448,1 1,1c0.552,0 1,-0.448 1,-1c0,-0.552 -0.448,-1 -1,-1c-0.552,0 -1,0.448 -1,1z" fill="#37474f"></path><path d="M11,24h-5v-5h5zM21,19h-5v5h5zM31,19h-5v5h5zM16,14h-5v5h5zM26,14h-5v5h5z" fill="#01579b"></path><path d="M16,24h-5v-5h5zM26,19h-5v5h5zM26,9h-5v5h5zM21,14h-5v5h5z" fill="#0288d1"></path></g></g></svg>